<svg width="67" height="67" viewBox="0 0 66 67" fill="none" xmlns="http://www.w3.org/2000/svg">
    <path d="M38.0297 53.04C37.6188 53.0414 37.2129 52.9493 36.8417 52.7706C36.4705 52.5918 36.1435 52.3309 35.8847 52.007L22.6022 35.257C22.1977 34.7575 21.9766 34.1309 21.9766 33.4843C21.9766 32.8377 22.1977 32.2111 22.6022 31.7116L36.3522 14.9616C36.8189 14.3915 37.4897 14.033 38.2169 13.9649C38.944 13.8969 39.6681 14.1249 40.2297 14.5987C40.7913 15.0726 41.1444 15.7535 41.2115 16.4917C41.2785 17.2299 41.0539 17.9648 40.5872 18.535L28.2947 33.4983L40.1747 48.4616C40.5109 48.8714 40.7245 49.3704 40.7902 49.8995C40.8559 50.4287 40.7709 50.9659 40.5452 51.4475C40.3196 51.9292 39.9627 52.3351 39.5169 52.6173C39.0711 52.8995 38.555 53.0462 38.0297 53.04Z" fill="#9E591F"/>
</svg>
