<svg width="40" height="40" viewBox="0 0 63 35" fill="none" xmlns="http://www.w3.org/2000/svg">
    <path d="M30 15C17.575 15 5 18.865 5 26.25V36.25C5 43.635 17.575 47.5 30 47.5C42.425 47.5 55 43.635 55 36.25V26.25C55 18.865 42.425 15 30 15ZM10 36.25V33.2575C11.5834 34.1542 13.26 34.8751 15 35.4075V40.11C11.72 38.825 10 37.295 10 36.25ZM40 36.62V41.5475C37.8325 41.995 35.3325 42.3225 32.5 42.4425V37.4425C35.016 37.3423 37.5221 37.0675 40 36.62ZM27.5 42.445C24.98 42.3485 22.4719 42.0492 20 41.55V36.6225C22.3975 37.0575 24.93 37.34 27.5 37.4475V42.445ZM45 40.11V35.4075C46.7404 34.8762 48.4172 34.1552 50 33.2575V36.25C50 37.295 48.2825 38.825 45 40.11ZM30 32.5C17.0575 32.5 10 28.3725 10 26.25C10 24.1275 17.0575 20 30 20C42.9425 20 50 24.1275 50 26.25C50 28.3725 42.9425 32.5 30 32.5Z" fill="black"/>
</svg>
