<svg width="25" height="25" viewBox="0 0 65 77" fill="none" xmlns="http://www.w3.org/2000/svg">
    <path d="M31.207 66.3672C35.869 66.3672 40.3401 64.5152 43.6366 61.2187C46.9332 57.9221 48.7852 53.4511 48.7852 48.7891C48.7852 44.1271 46.9332 39.656 43.6366 36.3595C40.3401 33.0629 35.869 31.2109 31.207 31.2109C26.545 31.2109 22.074 33.0629 18.7774 36.3595C15.4809 39.656 13.6289 44.1271 13.6289 48.7891C13.6289 53.4511 15.4809 57.9221 18.7774 61.2187C22.074 64.5152 26.545 66.3672 31.207 66.3672ZM31.207 70.7617C25.3795 70.7617 19.7907 68.4468 15.67 64.3261C11.5493 60.2054 9.23438 54.6166 9.23438 48.7891C9.23438 42.9616 11.5493 37.3727 15.67 33.252C19.7907 29.1314 25.3795 26.8164 31.207 26.8164C37.0345 26.8164 42.6234 29.1314 46.744 33.252C50.8647 37.3727 53.1797 42.9616 53.1797 48.7891C53.1797 54.6166 50.8647 60.2054 46.744 64.3261C42.6234 68.4468 37.0345 70.7617 31.207 70.7617ZM50.9824 9.23828H68.5605C70.0254 9.23828 70.7578 9.9707 70.7578 11.4355C70.7578 12.9004 70.0254 13.6328 68.5605 13.6328H50.9824C49.5176 13.6328 48.7852 12.9004 48.7852 11.4355C48.7852 9.9707 49.5176 9.23828 50.9824 9.23828Z" fill="black"/>
    <path d="M68.5645 9.23828C70.0293 9.23828 70.7617 9.9707 70.7617 11.4355V29.0137C70.7617 30.4785 70.0293 31.2109 68.5645 31.2109C67.0996 31.2109 66.3672 30.4785 66.3672 29.0137V11.4355C66.3672 9.9707 67.0996 9.23828 68.5645 9.23828Z" fill="black"/>
    <path d="M47.251 35.8505L44.1484 32.7436L67.0088 9.87891L70.1202 12.9902L47.251 35.8505Z" fill="black"/>
</svg>
