<svg width="40" height="40" viewBox="0 0 40 40" fill="none" xmlns="http://www.w3.org/2000/svg">
<g clip-path="url(#clip0_446_183)">
<path d="M28.8435 33.4047H5.5935C5.12123 33.4045 4.66838 33.2168 4.33444 32.8828C4.00049 32.5489 3.81276 32.096 3.8125 31.6238V8.37475C3.8125 7.39275 4.6115 6.59375 5.5935 6.59375H28.8425C29.8245 6.59375 30.6235 7.39175 30.6235 8.37475V13.9998C30.6235 14.122 30.5749 14.2393 30.4885 14.3257C30.402 14.4122 30.2848 14.4608 30.1625 14.4608C30.0402 14.4608 29.923 14.4122 29.8365 14.3257C29.7501 14.2393 29.7015 14.122 29.7015 13.9998V8.37475C29.701 8.14736 29.6104 7.92943 29.4496 7.76864C29.2888 7.60784 29.0709 7.51728 28.8435 7.51675H5.5935C5.36611 7.51728 5.14818 7.60784 4.98739 7.76864C4.82659 7.92943 4.73603 8.14736 4.7355 8.37475V31.6248C4.73603 31.8521 4.82659 32.0701 4.98739 32.2309C5.14818 32.3917 5.36611 32.4822 5.5935 32.4828H28.8425C29.0699 32.4822 29.2878 32.3917 29.4486 32.2309C29.6094 32.0701 29.7 31.8521 29.7005 31.6248V26.0567C29.7005 25.9345 29.7491 25.8172 29.8355 25.7308C29.922 25.6443 30.0392 25.5958 30.1615 25.5958C30.2838 25.5958 30.401 25.6443 30.4875 25.7308C30.5739 25.8172 30.6225 25.9345 30.6225 26.0567V31.6248C30.6225 32.0967 30.4351 32.5493 30.1015 32.883C29.7679 33.2168 29.3154 33.4045 28.8435 33.4047ZM33.1975 27.0198C33.1067 27.0204 33.0178 26.9943 32.9419 26.9445C32.8659 26.8948 32.8064 26.8237 32.7708 26.7402C32.7352 26.6567 32.7251 26.5645 32.7418 26.4753C32.7585 26.3861 32.8012 26.3038 32.8645 26.2388L38.8945 19.9858L32.8895 13.7607C32.8475 13.7171 32.8145 13.6656 32.7924 13.6091C32.7702 13.5527 32.7594 13.4925 32.7606 13.4319C32.7618 13.3713 32.7749 13.3116 32.7991 13.256C32.8234 13.2005 32.8583 13.1503 32.902 13.1082C32.9902 13.0234 33.1085 12.977 33.2308 12.9794C33.2914 12.9805 33.3512 12.9936 33.4067 13.0179C33.4623 13.0421 33.5125 13.0771 33.5545 13.1208L39.8675 19.6658C39.9507 19.7514 39.9974 19.8661 39.9975 19.9855C39.9977 20.105 39.9515 20.2198 39.8685 20.3057L33.5295 26.8787C33.4865 26.9234 33.4349 26.9589 33.3779 26.9831C33.3208 27.0074 33.2595 27.0198 33.1975 27.0198Z" fill="black"/>
<path d="M39.5368 20.4454H17.2188C17.0965 20.4454 16.9793 20.3969 16.8928 20.3104C16.8064 20.224 16.7578 20.1067 16.7578 19.9844C16.7578 19.8622 16.8064 19.7449 16.8928 19.6585C16.9793 19.572 17.0965 19.5234 17.2188 19.5234H39.5368C39.6591 19.5234 39.7763 19.572 39.8628 19.6585C39.9492 19.7449 39.9978 19.8622 39.9978 19.9844C39.9978 20.1067 39.9492 20.224 39.8628 20.3104C39.7763 20.3969 39.6591 20.4454 39.5368 20.4454Z" fill="black"/>
</g>
<defs>
<clipPath id="clip0_446_183">
<rect width="40" height="40" fill="white"/>
</clipPath>
</defs>
</svg>
