<svg width="35" height="35" viewBox="0 0 57 47" fill="none" xmlns="http://www.w3.org/2000/svg">
    <path d="M5 20L8.26 22.6075C9.39571 23.5159 10.7159 24.1656 12.1285 24.5114C13.5411 24.8572 15.0121 24.8907 16.439 24.6096C17.8659 24.3285 19.2143 23.7396 20.3902 22.8839C21.5661 22.0282 22.5412 20.9263 23.2475 19.655L30 7.5L36.7525 19.655C37.4591 20.9261 38.4343 22.0277 39.6103 22.8832C40.7863 23.7387 42.1348 24.3273 43.5616 24.6082C44.9885 24.889 46.4594 24.8553 47.8719 24.5093C49.2844 24.1634 50.6044 23.5135 51.74 22.605L55 20L50.615 41.925C50.4235 42.8818 50.0162 43.7823 49.4239 44.5578C48.8317 45.3334 48.0702 45.9634 47.1975 46.4V46.4C41.8579 49.07 35.9699 50.46 30 50.46C24.0301 50.46 18.1421 49.07 12.8025 46.4V46.4C11.9298 45.9634 11.1683 45.3334 10.5761 44.5578C9.98383 43.7823 9.57645 42.8818 9.385 41.925L5 20Z" stroke="black" stroke-width="2" stroke-linecap="round" stroke-linejoin="round"/>
    <path d="M20 37.5C26.49 40.8325 33.51 40.8325 40 37.5" stroke="black" stroke-width="2" stroke-linecap="round" stroke-linejoin="round"/>
</svg>
