<svg width="40" height="40" viewBox="0 0 34 34" fill="none" xmlns="http://www.w3.org/2000/svg">
	<path d="M22.0469 17C22.0469 17.2113 21.9629 17.414 21.8135 17.5635C21.664 17.7129 21.4613 17.7969 21.25 17.7969H12.75C12.5387 17.7969 12.336 17.7129 12.1865 17.5635C12.0371 17.414 11.9531 17.2113 11.9531 17C11.9531 16.7887 12.0371 16.586 12.1865 16.4365C12.336 16.2871 12.5387 16.2031 12.75 16.2031H21.25C21.4613 16.2031 21.664 16.2871 21.8135 16.4365C21.9629 16.586 22.0469 16.7887 22.0469 17ZM21.25 20.4531H12.75C12.5387 20.4531 12.336 20.5371 12.1865 20.6865C12.0371 20.836 11.9531 21.0387 11.9531 21.25C11.9531 21.4613 12.0371 21.664 12.1865 21.8135C12.336 21.9629 12.5387 22.0469 12.75 22.0469H21.25C21.4613 22.0469 21.664 21.9629 21.8135 21.8135C21.9629 21.664 22.0469 21.4613 22.0469 21.25C22.0469 21.0387 21.9629 20.836 21.8135 20.6865C21.664 20.5371 21.4613 20.4531 21.25 20.4531ZM28.4219 6.375V26.5625C28.4184 27.6181 27.9975 28.6296 27.251 29.376C26.5046 30.1225 25.4931 30.5434 24.4375 30.5469H9.5625C8.50686 30.5434 7.49545 30.1225 6.74899 29.376C6.00253 28.6296 5.58163 27.6181 5.57812 26.5625V6.375C5.57813 5.88186 5.77402 5.40892 6.12272 5.06022C6.47142 4.71152 6.94436 4.51563 7.4375 4.51562H9.82812V3.1875C9.82812 2.97616 9.91208 2.77347 10.0615 2.62402C10.211 2.47458 10.4137 2.39063 10.625 2.39062C10.8363 2.39062 11.039 2.47458 11.1885 2.62402C11.3379 2.77347 11.4219 2.97616 11.4219 3.1875V4.51562H16.2031V3.1875C16.2031 2.97616 16.2871 2.77347 16.4365 2.62402C16.586 2.47458 16.7887 2.39063 17 2.39062C17.2113 2.39062 17.414 2.47458 17.5635 2.62402C17.7129 2.77347 17.7969 2.97616 17.7969 3.1875V4.51562H22.5781V3.1875C22.5781 2.97616 22.6621 2.77347 22.8115 2.62402C22.961 2.47458 23.1637 2.39063 23.375 2.39062C23.5863 2.39062 23.789 2.47458 23.9385 2.62402C24.0879 2.77347 24.1719 2.97616 24.1719 3.1875V4.51562H26.5625C27.0556 4.51562 27.5286 4.71152 27.8773 5.06022C28.226 5.40892 28.4219 5.88186 28.4219 6.375ZM26.8281 6.375C26.8281 6.30455 26.8001 6.23699 26.7503 6.18717C26.7005 6.13736 26.6329 6.10938 26.5625 6.10938H24.1719V7.4375C24.1719 7.64884 24.0879 7.85153 23.9385 8.00098C23.789 8.15042 23.5863 8.23438 23.375 8.23438C23.1637 8.23438 22.961 8.15042 22.8115 8.00098C22.6621 7.85153 22.5781 7.64884 22.5781 7.4375V6.10938H17.7969V7.4375C17.7969 7.64884 17.7129 7.85153 17.5635 8.00098C17.414 8.15042 17.2113 8.23438 17 8.23438C16.7887 8.23438 16.586 8.15042 16.4365 8.00098C16.2871 7.85153 16.2031 7.64884 16.2031 7.4375V6.10938H11.4219V7.4375C11.4219 7.64884 11.3379 7.85153 11.1885 8.00098C11.039 8.15042 10.8363 8.23438 10.625 8.23438C10.4137 8.23438 10.211 8.15042 10.0615 8.00098C9.91208 7.85153 9.82812 7.64884 9.82812 7.4375V6.10938H7.4375C7.36705 6.10938 7.29949 6.13736 7.24967 6.18717C7.19986 6.23699 7.17188 6.30455 7.17188 6.375V26.5625C7.17536 27.1955 7.42835 27.8015 7.87593 28.2491C8.3235 28.6966 8.92954 28.9496 9.5625 28.9531H24.4375C25.0705 28.9496 25.6765 28.6966 26.1241 28.2491C26.5716 27.8015 26.8246 27.1955 26.8281 26.5625V6.375Z" fill="black"/>
</svg>


