<svg width="62" height="48" viewBox="0 0 62 48" fill="none" xmlns="http://www.w3.org/2000/svg">
<path d="M43.9829 24.675L46.0197 12.1312C46.0372 12.0234 46.0342 11.9126 46.011 11.806C45.9878 11.6995 45.9449 11.5995 45.8851 11.5125C45.82 11.4297 45.7397 11.3634 45.6497 11.3181C45.5597 11.2728 45.462 11.2496 45.3632 11.25H17.6389L16.7299 5.60625C16.647 5.08642 16.4025 4.61565 16.0394 4.2763C15.6763 3.93695 15.2176 3.75065 14.7436 3.75H11.6968C11.5182 3.75 11.3469 3.82902 11.2207 3.96967C11.0944 4.11032 11.0234 4.30109 11.0234 4.5C11.0234 4.69891 11.0944 4.88968 11.2207 5.03033C11.3469 5.17098 11.5182 5.25 11.6968 5.25H14.7436C14.9006 5.25168 15.0522 5.31444 15.1721 5.42743C15.2919 5.54042 15.3726 5.69653 15.4001 5.86875L20.0965 34.6125C19.4363 35.1475 18.9371 35.8927 18.6647 36.7501C18.3923 37.6074 18.3595 38.5365 18.5706 39.415C18.7817 40.2935 19.2268 41.0802 19.8472 41.6713C20.4677 42.2624 21.2344 42.6302 22.0463 42.7263C22.8582 42.8224 23.6772 42.6422 24.3953 42.2095C25.1134 41.7768 25.697 41.1119 26.0691 40.3025C26.4412 39.493 26.5844 38.5769 26.4798 37.675C26.3752 36.773 26.0278 35.9276 25.4832 35.25H36.9634C36.3468 36.0179 35.9854 36.9982 35.9396 38.0272C35.8939 39.0562 36.1664 40.0716 36.7119 40.9036C37.2573 41.7357 38.0425 42.3341 38.9364 42.5989C39.8303 42.8636 40.7787 42.7787 41.6231 42.3584C42.4675 41.938 43.1569 41.2076 43.576 40.2892C43.9952 39.3708 44.1187 38.32 43.926 37.3123C43.7332 36.3047 43.2359 35.4012 42.5171 34.7529C41.7983 34.1045 40.9015 33.7505 39.9766 33.75H21.3254L20.3322 27.75H40.6667C41.4553 27.7512 42.2192 27.444 42.8252 26.882C43.4313 26.3201 43.841 25.539 43.9829 24.675ZM25.1633 38.25C25.1633 38.8433 25.0054 39.4234 24.7094 39.9167C24.4135 40.4101 23.9929 40.7946 23.5007 41.0216C23.0086 41.2487 22.467 41.3081 21.9446 41.1924C21.4221 41.0766 20.9422 40.7909 20.5656 40.3713C20.1889 39.9518 19.9324 39.4172 19.8285 38.8353C19.7245 38.2533 19.7779 37.6501 19.9817 37.1019C20.1856 36.5538 20.5308 36.0852 20.9737 35.7556C21.4166 35.4259 21.9373 35.25 22.47 35.25C23.1843 35.25 23.8694 35.5661 24.3745 36.1287C24.8796 36.6913 25.1633 37.4543 25.1633 38.25ZM42.6699 38.25C42.6699 38.8433 42.5119 39.4234 42.216 39.9167C41.9201 40.4101 41.4994 40.7946 41.0073 41.0216C40.5151 41.2487 39.9736 41.3081 39.4511 41.1924C38.9287 41.0766 38.4488 40.7909 38.0721 40.3713C37.6955 39.9518 37.4389 39.4172 37.335 38.8353C37.2311 38.2533 37.2844 37.6501 37.4883 37.1019C37.6921 36.5538 38.0373 36.0852 38.4803 35.7556C38.9232 35.4259 39.4439 35.25 39.9766 35.25C40.6909 35.25 41.376 35.5661 41.881 36.1287C42.3861 36.6913 42.6699 37.4543 42.6699 38.25ZM17.8914 12.75H44.5552L42.6531 24.3938C42.5733 24.9152 42.3297 25.3881 41.9659 25.7281C41.6021 26.0681 41.1416 26.2531 40.6667 26.25H20.0965L17.8914 12.75Z" fill="#371710"/>
</svg>
