<svg width="40" height="30" viewBox="10 -10 60 60" fill="none" xmlns="http://www.w3.org/2000/svg">
    <g clip-path="url(#clip0_626_29)">
        <path d="M53.3359 10H6.66927C5.78522 10 4.93737 10.3512 4.31225 10.9763C3.68713 11.6014 3.33594 12.4493 3.33594 13.3333V46.6667C3.33594 47.5507 3.68713 48.3986 4.31225 49.0237C4.93737 49.6488 5.78522 50 6.66927 50H53.3359C54.22 50 55.0678 49.6488 55.693 49.0237C56.3181 48.3986 56.6693 47.5507 56.6693 46.6667V13.3333C56.6693 12.4493 56.3181 11.6014 55.693 10.9763C55.0678 10.3512 54.22 10 53.3359 10ZM50.7693 46.6667H9.43594L21.1026 34.6L18.7026 32.2833L6.66927 44.7333V15.8667L27.3859 36.4833C28.0105 37.1042 28.8553 37.4526 29.7359 37.4526C30.6166 37.4526 31.4614 37.1042 32.0859 36.4833L53.3359 15.35V44.5167L41.0693 32.25L38.7193 34.6L50.7693 46.6667ZM8.8526 13.3333H50.6359L29.7359 34.1167L8.8526 13.3333Z" fill="black"/>
    </g>
    <defs>
        <clipPath id="clip0_626_29">
            <rect width="60" height="60" fill="white"/>
        </clipPath>
    </defs>
</svg>
