<svg width="100" height="100" viewBox="0 0 155 145" fill="none" xmlns="http://www.w3.org/2000/svg">
    <path fill-rule="evenodd" clip-rule="evenodd" d="M41.9005 111.33C68.4249 107.705 86.6878 108.017 113.247 111.457C115.17 111.718 116.928 112.621 118.195 114C119.462 115.378 120.153 117.139 120.141 118.957C120.141 120.697 119.501 122.387 118.347 123.706C116.334 126.007 114.272 128.269 112.162 130.492H122.396C123.039 129.774 123.686 129.042 124.341 128.299C126.64 125.662 127.894 122.363 127.891 118.961C127.891 111.62 122.163 105.295 114.309 104.28C87.1218 100.76 68.1188 100.423 40.7806 104.16C32.8446 105.244 27.1406 111.668 27.1406 119.059C27.1406 122.34 28.2838 125.584 30.4499 128.212C31.0893 128.988 31.7209 129.749 32.3486 130.496H42.3345C40.3715 128.297 38.4569 126.061 36.5918 123.79C35.4834 122.43 34.8854 120.766 34.8906 119.055C34.8906 115.151 37.8899 111.878 41.9005 111.33ZM77.5156 76.1172C80.5689 76.1172 83.5922 75.5546 86.413 74.4616C89.2338 73.3685 91.7969 71.7664 93.9559 69.7468C96.1148 67.7271 97.8274 65.3294 98.9958 62.6906C100.164 60.0517 100.766 57.2234 100.766 54.3672C100.766 51.5109 100.164 48.6827 98.9958 46.0438C97.8274 43.405 96.1148 41.0073 93.9559 38.9876C91.7969 36.9679 89.2338 35.3658 86.413 34.2728C83.5922 33.1798 80.5689 32.6172 77.5156 32.6172C71.3493 32.6172 65.4356 34.9087 61.0754 38.9876C56.7152 43.0665 54.2656 48.5987 54.2656 54.3672C54.2656 60.1356 56.7152 65.6678 61.0754 69.7468C65.4356 73.8257 71.3493 76.1172 77.5156 76.1172V76.1172ZM77.5156 83.3672C85.7373 83.3672 93.6223 80.3118 99.4359 74.8733C105.25 69.4347 108.516 62.0585 108.516 54.3672C108.516 46.6759 105.25 39.2996 99.4359 33.8611C93.6223 28.4225 85.7373 25.3672 77.5156 25.3672C69.2939 25.3672 61.4089 28.4225 55.5953 33.8611C49.7817 39.2996 46.5156 46.6759 46.5156 54.3672C46.5156 62.0585 49.7817 69.4347 55.5953 74.8733C61.4089 80.3118 69.2939 83.3672 77.5156 83.3672V83.3672Z" fill="#9E591F"/>
    <path fill-rule="evenodd" clip-rule="evenodd" d="M77.5 137.75C116.021 137.75 147.25 108.536 147.25 72.5C147.25 36.4639 116.021 7.25 77.5 7.25C38.9786 7.25 7.75 36.4639 7.75 72.5C7.75 108.536 38.9786 137.75 77.5 137.75ZM77.5 145C120.303 145 155 112.542 155 72.5C155 32.4583 120.303 0 77.5 0C34.6968 0 0 32.4583 0 72.5C0 112.542 34.6968 145 77.5 145Z" fill="#9E591F"/>
</svg>
