<svg width="30" height="40" viewBox="0 0 50 60" fill="none" xmlns="http://www.w3.org/2000/svg">
    <path d="M36 3.75C37.1935 3.75 38.3381 4.14509 39.182 4.84835C40.0259 5.55161 40.5 6.50544 40.5 7.5V52.5C40.5 53.4946 40.0259 54.4484 39.182 55.1516C38.3381 55.8549 37.1935 56.25 36 56.25H9C7.80653 56.25 6.66193 55.8549 5.81802 55.1516C4.97411 54.4484 4.5 53.4946 4.5 52.5V7.5C4.5 6.50544 4.97411 5.55161 5.81802 4.84835C6.66193 4.14509 7.80653 3.75 9 3.75H36ZM9 0C6.61305 0 4.32387 0.790176 2.63604 2.1967C0.948211 3.60322 0 5.51088 0 7.5V52.5C0 54.4891 0.948211 56.3968 2.63604 57.8033C4.32387 59.2098 6.61305 60 9 60H36C38.3869 60 40.6761 59.2098 42.364 57.8033C44.0518 56.3968 45 54.4891 45 52.5V7.5C45 5.51088 44.0518 3.60322 42.364 2.1967C40.6761 0.790176 38.3869 0 36 0L9 0Z" fill="black"/>
    <path d="M22.5 52.5C23.6935 52.5 24.8381 52.1049 25.682 51.4016C26.5259 50.6984 27 49.7446 27 48.75C27 47.7554 26.5259 46.8016 25.682 46.0984C24.8381 45.3951 23.6935 45 22.5 45C21.3065 45 20.1619 45.3951 19.318 46.0984C18.4741 46.8016 18 47.7554 18 48.75C18 49.7446 18.4741 50.6984 19.318 51.4016C20.1619 52.1049 21.3065 52.5 22.5 52.5Z" fill="black"/>
</svg>
